<svg width="1366" height="768" viewBox="0 0 1366 768" fill="none" xmlns="http://www.w3.org/2000/svg">
<g clip-path="url(#clip0_58_1456)">
<g clip-path="url(#clip1_58_1456)">
<path d="M30.7294 105.808V102.863C49.867 102.841 68.2147 95.2329 81.747 81.7072C95.2794 68.1814 102.891 49.8427 102.913 30.7144L105.859 30.7144C105.837 50.6235 97.9142 69.7107 83.8295 83.7886C69.7448 97.8665 50.6482 105.785 30.7294 105.808Z" fill="#D4ADFC"/>
<path d="M30.7295 89.4254L30.7295 86.5088C60.1053 86.5088 84.0102 61.4779 84.0102 30.7144H86.9268C86.9268 63.0879 61.7184 89.4254 30.7295 89.4254Z" fill="#D4ADFC"/>
<path d="M30.7292 69.6976V66.6991C40.2744 66.6886 49.4256 62.894 56.175 56.1478C62.9245 49.4017 66.721 40.2549 66.7315 30.7144L69.7314 30.7144C69.7197 41.0498 65.6068 50.9585 58.295 58.2668C50.9832 65.575 41.0696 69.6859 30.7292 69.6976Z" fill="#D4ADFC"/>
<path d="M30.7292 50.1568V47.277C35.1225 47.272 39.3345 45.5255 42.441 42.4204C45.5475 39.3154 47.2949 35.1056 47.2999 30.7144H50.1812C50.1752 35.869 48.1239 40.8108 44.4772 44.4557C40.8306 48.1006 35.8864 50.1509 30.7292 50.1568Z" fill="#D4ADFC"/>
</g>
<g clip-path="url(#clip2_58_1456)">
<path d="M242.463 30.7144V33.6596C223.325 33.681 204.978 41.2892 191.445 54.815C177.913 68.3407 170.301 86.6794 170.28 105.808H167.333C167.355 85.8986 175.278 66.8114 189.363 52.7335C203.448 38.6557 222.544 30.7369 242.463 30.7144Z" fill="#D4ADFC"/>
<path d="M242.463 47.0968V50.0134C213.087 50.0134 189.182 75.0443 189.182 105.808H186.266C186.266 73.4343 211.474 47.0968 242.463 47.0968Z" fill="#D4ADFC"/>
<path d="M242.463 66.8245V69.823C232.918 69.8335 223.767 73.6282 217.017 80.3743C210.268 87.1205 206.471 96.2672 206.461 105.808H203.461C203.473 95.4724 207.586 85.5636 214.897 78.2554C222.209 70.9472 232.123 66.8363 242.463 66.8245Z" fill="#D4ADFC"/>
<path d="M242.463 86.3653V89.2452C238.07 89.2501 233.858 90.9967 230.751 94.1017C227.645 97.2067 225.897 101.417 225.892 105.808H223.011C223.017 100.653 225.069 95.7113 228.715 92.0665C232.362 88.4216 237.306 86.3713 242.463 86.3653Z" fill="#D4ADFC"/>
</g>
<g clip-path="url(#clip3_58_1456)">
<path d="M167.333 167.251H170.279C170.301 186.38 177.913 204.718 191.445 218.244C204.978 231.77 223.325 239.378 242.463 239.4V242.345C222.544 242.322 203.448 234.403 189.363 220.326C175.278 206.248 167.355 187.16 167.333 167.251Z" fill="#FFBD69"/>
<path d="M183.723 167.251H186.641C186.641 196.613 211.684 220.506 242.463 220.506V223.421C210.074 223.421 183.723 198.225 183.723 167.251Z" fill="#FFBD69"/>
<path d="M203.461 167.251H206.461C206.471 176.792 210.268 185.939 217.017 192.685C223.767 199.431 232.918 203.226 242.463 203.236V206.235C232.122 206.223 222.209 202.112 214.897 194.804C207.585 187.495 203.472 177.587 203.461 167.251Z" fill="#FFBD69"/>
<path d="M223.011 167.251H225.892C225.897 171.643 227.645 175.852 230.751 178.957C233.858 182.062 238.07 183.809 242.463 183.814V186.694C237.306 186.688 232.362 184.638 228.715 180.993C225.068 177.348 223.017 172.406 223.011 167.251Z" fill="#FFBD69"/>
</g>
<g clip-path="url(#clip4_58_1456)">
<path d="M515.671 30.7144V33.6596C496.533 33.681 478.185 41.2892 464.653 54.815C451.121 68.3407 443.509 86.6794 443.487 105.808H440.541C440.563 85.8986 448.486 66.8114 462.57 52.7335C476.655 38.6557 495.752 30.7369 515.671 30.7144Z" fill="#D4ADFC"/>
<path d="M515.67 47.0968V50.0134C486.295 50.0134 462.39 75.0443 462.39 105.808H459.473C459.473 73.4343 484.682 47.0968 515.67 47.0968Z" fill="#D4ADFC"/>
<path d="M515.671 66.8245V69.823C506.126 69.8335 496.974 73.6282 490.225 80.3743C483.475 87.1205 479.679 96.2672 479.668 105.808H476.668C476.68 95.4724 480.793 85.5636 488.105 78.2554C495.417 70.9472 505.33 66.8363 515.671 66.8245Z" fill="#D4ADFC"/>
<path d="M515.671 86.3653V89.2452C511.277 89.2501 507.065 90.9967 503.959 94.1017C500.852 97.2067 499.105 101.417 499.1 105.808H496.219C496.225 100.653 498.276 95.7113 501.923 92.0665C505.569 88.4216 510.514 86.3713 515.671 86.3653Z" fill="#D4ADFC"/>
</g>
<g clip-path="url(#clip5_58_1456)">
<path d="M379.067 242.345H376.12C376.098 223.216 368.487 204.878 354.954 191.352C341.422 177.826 323.074 170.218 303.937 170.197V167.251C323.855 167.274 342.952 175.193 357.037 189.27C371.121 203.348 379.044 222.436 379.067 242.345Z" fill="#F25400"/>
<path d="M362.676 242.345H359.758C359.758 212.983 334.715 189.09 303.937 189.09V186.175C336.326 186.175 362.676 211.371 362.676 242.345Z" fill="#F25400"/>
<path d="M342.939 242.345H339.939C339.928 232.804 336.132 223.657 329.382 216.911C322.633 210.165 313.482 206.37 303.937 206.36V203.361C314.277 203.373 324.191 207.484 331.502 214.792C338.814 222.101 342.927 232.009 342.939 242.345Z" fill="#F25400"/>
<path d="M323.388 242.345H320.507C320.502 237.954 318.755 233.744 315.648 230.639C312.542 227.534 308.33 225.787 303.937 225.782V222.902C309.094 222.908 314.038 224.959 317.685 228.603C321.331 232.248 323.382 237.19 323.388 242.345Z" fill="#F25400"/>
</g>
<g clip-path="url(#clip6_58_1456)">
<path d="M515.671 242.345H512.724C512.702 223.216 505.091 204.878 491.558 191.352C478.026 177.826 459.678 170.218 440.541 170.197V167.251C460.459 167.274 479.556 175.193 493.641 189.27C507.725 203.348 515.648 222.436 515.671 242.345Z" fill="#CEE41A"/>
<path d="M499.28 242.345H496.362C496.362 212.983 471.319 189.09 440.541 189.09V186.175C472.93 186.175 499.28 211.371 499.28 242.345Z" fill="#CEE41A"/>
<path d="M479.543 242.345H476.543C476.532 232.804 472.736 223.657 465.986 216.911C459.237 210.165 450.086 206.37 440.541 206.36V203.361C450.881 203.373 460.795 207.484 468.106 214.792C475.418 222.101 479.531 232.009 479.543 242.345Z" fill="#CEE41A"/>
<path d="M459.992 242.345H457.111C457.106 237.954 455.359 233.744 452.252 230.639C449.146 227.534 444.934 225.787 440.541 225.782V222.902C445.698 222.908 450.642 224.959 454.289 228.603C457.935 232.248 459.986 237.19 459.992 242.345Z" fill="#CEE41A"/>
</g>
<g clip-path="url(#clip7_58_1456)">
<path d="M713.736 242.345V239.4C732.874 239.378 751.222 231.77 764.754 218.244C778.286 204.718 785.898 186.38 785.92 167.251H788.866C788.844 187.16 780.921 206.248 766.836 220.326C752.752 234.403 733.655 242.322 713.736 242.345Z" fill="#CEE41A"/>
<path d="M713.736 225.962V223.046C743.112 223.046 767.017 198.015 767.017 167.251H769.934C769.934 199.625 744.725 225.962 713.736 225.962Z" fill="#CEE41A"/>
<path d="M713.736 206.235V203.236C723.281 203.226 732.432 199.431 739.182 192.685C745.931 185.939 749.728 176.792 749.738 167.251H752.738C752.727 177.587 748.614 187.495 741.302 194.804C733.99 202.112 724.076 206.223 713.736 206.235Z" fill="#CEE41A"/>
<path d="M713.737 186.694V183.814C718.13 183.809 722.342 182.062 725.448 178.957C728.555 175.852 730.302 171.642 730.307 167.251H733.188C733.183 172.406 731.131 177.348 727.485 180.993C723.838 184.637 718.894 186.688 713.737 186.694Z" fill="#CEE41A"/>
</g>
<g clip-path="url(#clip8_58_1456)">
<path d="M1062.06 30.7144V33.6596C1042.92 33.681 1024.58 41.2892 1011.04 54.815C997.512 68.3407 989.9 86.6794 989.878 105.808H986.932C986.954 85.8986 994.877 66.8114 1008.96 52.7335C1023.05 38.6557 1042.14 30.7369 1062.06 30.7144Z" fill="#FFBD69"/>
<path d="M1062.06 47.0968V50.0134C1032.69 50.0134 1008.78 75.0443 1008.78 105.808H1005.86C1005.86 73.4343 1031.07 47.0968 1062.06 47.0968Z" fill="#FFBD69"/>
<path d="M1062.06 66.8245V69.823C1052.52 69.8335 1043.37 73.6282 1036.62 80.3743C1029.87 87.1205 1026.07 96.2672 1026.06 105.808H1023.06C1023.07 95.4724 1027.18 85.5636 1034.5 78.2554C1041.81 70.9472 1051.72 66.8363 1062.06 66.8245Z" fill="#FFBD69"/>
<path d="M1062.06 86.3653V89.2452C1057.67 89.2501 1053.46 90.9967 1050.35 94.1017C1047.24 97.2067 1045.5 101.417 1045.49 105.808H1042.61C1042.62 100.653 1044.67 95.7113 1048.31 92.0665C1051.96 88.4216 1056.9 86.3713 1062.06 86.3653Z" fill="#FFBD69"/>
</g>
<g clip-path="url(#clip9_58_1456)">
<path d="M986.932 242.345V239.4C1006.07 239.378 1024.42 231.77 1037.95 218.244C1051.48 204.718 1059.09 186.38 1059.11 167.251H1062.06C1062.04 187.16 1054.12 206.248 1040.03 220.326C1025.95 234.403 1006.85 242.322 986.932 242.345Z" fill="#FFBD69"/>
<path d="M986.932 225.962V223.046C1016.31 223.046 1040.21 198.015 1040.21 167.251H1043.13C1043.13 199.625 1017.92 225.962 986.932 225.962Z" fill="#FFBD69"/>
<path d="M986.931 206.235V203.236C996.477 203.226 1005.63 199.431 1012.38 192.685C1019.13 185.939 1022.92 176.792 1022.93 167.251H1025.93C1025.92 177.587 1021.81 187.495 1014.5 194.804C1007.19 202.112 997.272 206.223 986.931 206.235Z" fill="#FFBD69"/>
<path d="M986.932 186.694V183.814C991.325 183.809 995.537 182.062 998.644 178.957C1001.75 175.852 1003.5 171.642 1003.5 167.251H1006.38C1006.38 172.406 1004.33 177.348 1000.68 180.993C997.033 184.637 992.089 186.688 986.932 186.694Z" fill="#FFBD69"/>
</g>
<g clip-path="url(#clip10_58_1456)">
<path d="M1198.67 30.7144V33.6596C1179.53 33.681 1161.18 41.2892 1147.65 54.815C1134.12 68.3407 1126.5 86.6794 1126.48 105.808H1123.54C1123.56 85.8986 1131.48 66.8114 1145.57 52.7335C1159.65 38.6557 1178.75 30.7369 1198.67 30.7144Z" fill="#F25400"/>
<path d="M1198.67 47.0968V50.0134C1169.29 50.0134 1145.38 75.0443 1145.38 105.808H1142.47C1142.47 73.4343 1167.68 47.0968 1198.67 47.0968Z" fill="#F25400"/>
<path d="M1198.67 66.8245V69.823C1189.12 69.8335 1179.97 73.6282 1173.22 80.3743C1166.47 87.1205 1162.67 96.2672 1162.66 105.808H1159.66C1159.67 95.4724 1163.79 85.5636 1171.1 78.2554C1178.41 70.9472 1188.32 66.8363 1198.67 66.8245Z" fill="#F25400"/>
<path d="M1198.66 86.3653V89.2452C1194.27 89.2501 1190.06 90.9967 1186.95 94.1017C1183.85 97.2067 1182.1 101.417 1182.09 105.808H1179.21C1179.22 100.653 1181.27 95.7113 1184.92 92.0665C1188.56 88.4216 1193.51 86.3713 1198.66 86.3653Z" fill="#F25400"/>
</g>
<g clip-path="url(#clip11_58_1456)">
<path d="M1260.14 105.808V102.863C1279.28 102.841 1297.62 95.2329 1311.16 81.7072C1324.69 68.1814 1332.3 49.8427 1332.32 30.7144L1335.27 30.7144C1335.25 50.6235 1327.32 69.7107 1313.24 83.7886C1299.15 97.8665 1280.06 105.785 1260.14 105.808Z" fill="#CEE41A"/>
<path d="M1260.14 89.4254V86.5088C1289.51 86.5088 1313.42 61.4779 1313.42 30.7144H1316.34C1316.34 63.0879 1291.13 89.4254 1260.14 89.4254Z" fill="#CEE41A"/>
<path d="M1260.14 69.6976V66.6991C1269.68 66.6886 1278.83 62.894 1285.58 56.1478C1292.33 49.4017 1296.13 40.2549 1296.14 30.7144L1299.14 30.7144C1299.13 41.0498 1295.02 50.9585 1287.7 58.2668C1280.39 65.575 1270.48 69.6859 1260.14 69.6976Z" fill="#CEE41A"/>
<path d="M1260.14 50.1568V47.277C1264.53 47.272 1268.74 45.5255 1271.85 42.4204C1274.96 39.3154 1276.7 35.1056 1276.71 30.7144H1279.59C1279.58 35.869 1277.53 40.8108 1273.89 44.4557C1270.24 48.1006 1265.3 50.1509 1260.14 50.1568Z" fill="#CEE41A"/>
</g>
<g clip-path="url(#clip12_58_1456)">
<path d="M1198.67 242.345H1195.72C1195.7 223.216 1188.09 204.878 1174.55 191.352C1161.02 177.826 1142.67 170.218 1123.54 170.197V167.251C1143.45 167.274 1162.55 175.193 1176.64 189.27C1190.72 203.348 1198.64 222.436 1198.67 242.345Z" fill="#F25400"/>
<path d="M1182.27 242.345H1179.36C1179.36 212.983 1154.31 189.09 1123.54 189.09V186.175C1155.92 186.175 1182.27 211.371 1182.27 242.345Z" fill="#F25400"/>
<path d="M1162.54 242.345H1159.54C1159.53 232.804 1155.73 223.657 1148.98 216.911C1142.23 210.165 1133.08 206.37 1123.54 206.36V203.361C1133.88 203.373 1143.79 207.484 1151.1 214.792C1158.41 222.101 1162.53 232.009 1162.54 242.345Z" fill="#F25400"/>
<path d="M1142.99 242.345H1140.11C1140.1 237.954 1138.35 233.744 1135.25 230.639C1132.14 227.534 1127.93 225.787 1123.54 225.782V222.902C1128.69 222.908 1133.64 224.959 1137.28 228.603C1140.93 232.248 1142.98 237.19 1142.99 242.345Z" fill="#F25400"/>
</g>
<g clip-path="url(#clip13_58_1456)">
<path d="M1260.14 167.251H1263.09C1263.11 186.38 1270.72 204.718 1284.25 218.244C1297.78 231.77 1316.13 239.378 1335.27 239.4V242.345C1315.35 242.322 1296.25 234.403 1282.17 220.326C1268.08 206.248 1260.16 187.16 1260.14 167.251Z" fill="#CEE41A"/>
<path d="M1276.53 167.251H1279.45C1279.45 196.613 1304.49 220.506 1335.27 220.506V223.421C1302.88 223.421 1276.53 198.225 1276.53 167.251Z" fill="#CEE41A"/>
<path d="M1296.27 167.251H1299.27C1299.28 176.792 1303.07 185.939 1309.82 192.685C1316.57 199.431 1325.72 203.226 1335.27 203.236V206.235C1324.93 206.223 1315.01 202.112 1307.7 194.804C1300.39 187.495 1296.28 177.587 1296.27 167.251Z" fill="#CEE41A"/>
<path d="M1315.82 167.251H1318.7C1318.7 171.643 1320.45 175.852 1323.56 178.957C1326.66 182.062 1330.88 183.809 1335.27 183.814V186.694C1330.11 186.688 1325.17 184.638 1321.52 180.993C1317.87 177.348 1315.82 172.406 1315.82 167.251Z" fill="#CEE41A"/>
</g>
<g clip-path="url(#clip14_58_1456)">
<path d="M30.7294 303.788H33.676C33.6974 322.917 41.3094 341.255 54.8417 354.781C68.3741 368.307 86.7217 375.915 105.859 375.937V378.882C85.9406 378.859 66.844 370.94 52.7593 356.863C38.6745 342.785 30.7518 323.697 30.7294 303.788Z" fill="#F25400"/>
<path d="M47.1197 303.788H50.0378C50.0378 333.15 75.0809 357.043 105.859 357.043V359.958C73.4701 359.958 47.1197 334.762 47.1197 303.788Z" fill="#F25400"/>
<path d="M66.8571 303.788H69.8571C69.8676 313.329 73.6641 322.476 80.4135 329.222C87.163 335.968 96.3142 339.763 105.859 339.773V342.772C95.5189 342.76 85.6054 338.649 78.2936 331.341C70.9818 324.032 66.8689 314.124 66.8571 303.788Z" fill="#F25400"/>
<path d="M86.4075 303.788H89.2887C89.2937 308.179 91.0411 312.389 94.1476 315.494C97.2542 318.599 101.466 320.346 105.859 320.351V323.231C100.702 323.225 95.758 321.174 92.1114 317.53C88.4647 313.885 86.4134 308.943 86.4075 303.788Z" fill="#F25400"/>
</g>
<g clip-path="url(#clip15_58_1456)">
<path d="M167.333 378.882V375.937C186.471 375.915 204.818 368.307 218.351 354.781C231.883 341.255 239.495 322.917 239.516 303.788H242.463C242.44 323.697 234.518 342.785 220.433 356.863C206.348 370.94 187.252 378.859 167.333 378.882Z" fill="#FFBD69"/>
<path d="M167.333 362.499V359.583C196.709 359.583 220.614 334.552 220.614 303.788H223.53C223.53 336.162 198.322 362.499 167.333 362.499Z" fill="#FFBD69"/>
<path d="M167.333 342.772V339.773C176.878 339.763 186.029 335.968 192.779 329.222C199.528 322.476 203.324 313.329 203.335 303.788H206.335C206.323 314.124 202.21 324.032 194.899 331.341C187.587 338.649 177.673 342.76 167.333 342.772Z" fill="#FFBD69"/>
<path d="M167.333 323.231V320.351C171.726 320.346 175.938 318.599 179.045 315.494C182.151 312.389 183.898 308.179 183.903 303.788H186.785C186.779 308.943 184.727 313.885 181.081 317.53C177.434 321.174 172.49 323.225 167.333 323.231Z" fill="#FFBD69"/>
</g>
<g clip-path="url(#clip16_58_1456)">
<path d="M105.859 515.419H102.913C102.891 496.29 95.2795 477.952 81.7471 464.426C68.2148 450.9 49.8671 443.292 30.7295 443.27L30.7295 440.325C50.6483 440.348 69.7449 448.267 83.8296 462.344C97.9143 476.422 105.837 495.51 105.859 515.419Z" fill="#F25400"/>
<path d="M89.4691 515.419H86.5511C86.5511 486.057 61.508 462.164 30.7295 462.164V459.249C63.1188 459.249 89.4691 484.445 89.4691 515.419Z" fill="#F25400"/>
<path d="M69.7317 515.419H66.7318C66.7212 505.878 62.9248 496.731 56.1753 489.985C49.4259 483.239 40.2747 479.444 30.7295 479.434L30.7295 476.435C41.0699 476.447 50.9835 480.558 58.2953 487.866C65.6071 495.174 69.72 505.083 69.7317 515.419Z" fill="#F25400"/>
<path d="M50.1814 515.419H47.3002C47.2952 511.027 45.5478 506.818 42.4412 503.713C39.3347 500.608 35.1228 498.861 30.7295 498.856V495.976C35.8866 495.982 40.8308 498.032 44.4775 501.677C48.1241 505.322 50.1754 510.264 50.1814 515.419Z" fill="#F25400"/>
</g>
<g clip-path="url(#clip17_58_1456)">
<path d="M167.333 440.325H170.279C170.301 459.454 177.913 477.792 191.445 491.318C204.978 504.844 223.325 512.452 242.463 512.473V515.419C222.544 515.396 203.448 507.477 189.363 493.399C175.278 479.322 167.355 460.234 167.333 440.325Z" fill="#FFBD69"/>
<path d="M183.723 440.325H186.641C186.641 469.687 211.684 493.58 242.463 493.58V496.495C210.074 496.495 183.723 471.299 183.723 440.325Z" fill="#FFBD69"/>
<path d="M203.461 440.325H206.461C206.471 449.866 210.268 459.013 217.017 465.759C223.767 472.505 232.918 476.299 242.463 476.31V479.308C232.122 479.297 222.209 475.186 214.897 467.878C207.585 460.569 203.472 450.661 203.461 440.325Z" fill="#FFBD69"/>
<path d="M223.011 440.325H225.892C225.897 444.716 227.645 448.926 230.751 452.031C233.858 455.136 238.07 456.883 242.463 456.888V459.768C237.306 459.762 232.362 457.711 228.715 454.067C225.068 450.422 223.017 445.48 223.011 440.325Z" fill="#FFBD69"/>
</g>
<g clip-path="url(#clip18_58_1456)">
<path d="M515.671 515.419H512.724C512.702 496.29 505.091 477.952 491.558 464.426C478.026 450.9 459.678 443.292 440.541 443.27V440.325C460.459 440.348 479.556 448.267 493.641 462.344C507.725 476.422 515.648 495.51 515.671 515.419Z" fill="#CEE41A"/>
<path d="M499.28 515.419H496.362C496.362 486.057 471.319 462.164 440.541 462.164V459.249C472.93 459.249 499.28 484.445 499.28 515.419Z" fill="#CEE41A"/>
<path d="M479.543 515.419H476.543C476.532 505.878 472.736 496.731 465.986 489.985C459.237 483.239 450.086 479.444 440.541 479.434V476.435C450.881 476.447 460.795 480.558 468.106 487.866C475.418 495.174 479.531 505.083 479.543 515.419Z" fill="#CEE41A"/>
<path d="M459.992 515.419H457.111C457.106 511.027 455.359 506.818 452.252 503.713C449.146 500.608 444.934 498.861 440.541 498.856V495.976C445.698 495.982 450.642 498.032 454.289 501.677C457.935 505.322 459.986 510.264 459.992 515.419Z" fill="#CEE41A"/>
</g>
<g clip-path="url(#clip19_58_1456)">
<path d="M652.262 440.325V443.27C633.125 443.292 614.777 450.9 601.245 464.426C587.712 477.952 580.1 496.29 580.079 515.419H577.132C577.155 495.51 585.077 476.422 599.162 462.344C613.247 448.267 632.344 440.348 652.262 440.325Z" fill="#F25400"/>
<path d="M652.262 456.708V459.624C622.886 459.624 598.981 484.655 598.981 515.419H596.065C596.065 483.045 621.273 456.708 652.262 456.708Z" fill="#F25400"/>
<path d="M652.262 476.435V479.434C642.717 479.444 633.566 483.239 626.817 489.985C620.067 496.731 616.271 505.878 616.26 515.419H613.26C613.272 505.083 617.385 495.175 624.697 487.866C632.008 480.558 641.922 476.447 652.262 476.435Z" fill="#F25400"/>
<path d="M652.262 495.976V498.856C647.869 498.861 643.657 500.608 640.551 503.713C637.444 506.818 635.697 511.027 635.692 515.419H632.811C632.817 510.264 634.868 505.322 638.514 501.677C642.161 498.032 647.105 495.982 652.262 495.976Z" fill="#F25400"/>
</g>
<g clip-path="url(#clip20_58_1456)">
<path d="M925.47 303.788V306.733C906.332 306.755 887.985 314.363 874.452 327.889C860.92 341.415 853.308 359.753 853.286 378.882H850.34C850.362 358.973 858.285 339.885 872.37 325.807C886.454 311.73 905.551 303.811 925.47 303.788Z" fill="#F25400"/>
<path d="M925.47 320.171V323.087C896.094 323.087 872.189 348.118 872.189 378.882H869.272C869.272 346.508 894.481 320.171 925.47 320.171Z" fill="#F25400"/>
<path d="M925.47 339.898V342.897C915.925 342.907 906.774 346.702 900.024 353.448C893.275 360.194 889.478 369.341 889.468 378.882H886.468C886.48 368.546 890.592 358.638 897.904 351.329C905.216 344.021 915.13 339.91 925.47 339.898Z" fill="#F25400"/>
<path d="M925.469 359.439V362.319C921.076 362.324 916.864 364.071 913.758 367.176C910.651 370.281 908.904 374.491 908.899 378.882H906.018C906.024 373.727 908.075 368.785 911.721 365.14C915.368 361.496 920.312 359.445 925.469 359.439Z" fill="#F25400"/>
</g>
<g clip-path="url(#clip21_58_1456)">
<path d="M986.932 303.788H989.878C989.9 322.917 997.512 341.255 1011.04 354.781C1024.58 368.307 1042.92 375.915 1062.06 375.937V378.882C1042.14 378.859 1023.05 370.94 1008.96 356.863C994.877 342.785 986.954 323.697 986.932 303.788Z" fill="#FFBD69"/>
<path d="M1003.32 303.788H1006.24C1006.24 333.15 1031.28 357.043 1062.06 357.043V359.958C1029.67 359.958 1003.32 334.762 1003.32 303.788Z" fill="#FFBD69"/>
<path d="M1023.06 303.788H1026.06C1026.07 313.329 1029.87 322.476 1036.62 329.222C1043.37 335.968 1052.52 339.763 1062.06 339.773V342.772C1051.72 342.76 1041.81 338.649 1034.5 331.341C1027.18 324.032 1023.07 314.124 1023.06 303.788Z" fill="#FFBD69"/>
<path d="M1042.61 303.788H1045.49C1045.5 308.179 1047.24 312.389 1050.35 315.494C1053.46 318.599 1057.67 320.346 1062.06 320.351V323.231C1056.9 323.225 1051.96 321.174 1048.31 317.53C1044.67 313.885 1042.62 308.943 1042.61 303.788Z" fill="#FFBD69"/>
</g>
<g clip-path="url(#clip22_58_1456)">
<path d="M850.34 440.325H853.286C853.308 459.454 860.92 477.792 874.452 491.318C887.984 504.844 906.332 512.452 925.47 512.473V515.419C905.551 515.396 886.454 507.477 872.37 493.399C858.285 479.322 850.362 460.234 850.34 440.325Z" fill="#F25400"/>
<path d="M866.73 440.325H869.648C869.648 469.687 894.691 493.58 925.47 493.58V496.495C893.08 496.495 866.73 471.299 866.73 440.325Z" fill="#F25400"/>
<path d="M886.467 440.325H889.467C889.478 449.866 893.274 459.013 900.024 465.759C906.773 472.505 915.925 476.299 925.47 476.31V479.308C915.129 479.297 905.216 475.186 897.904 467.878C890.592 460.569 886.479 450.661 886.467 440.325Z" fill="#F25400"/>
<path d="M906.018 440.325H908.899C908.904 444.716 910.651 448.926 913.758 452.031C916.865 455.136 921.076 456.883 925.47 456.888V459.768C920.313 459.762 915.368 457.711 911.722 454.067C908.075 450.422 906.024 445.48 906.018 440.325Z" fill="#F25400"/>
</g>
<g clip-path="url(#clip23_58_1456)">
<path d="M1062.06 515.419H1059.12C1059.09 496.29 1051.48 477.952 1037.95 464.426C1024.42 450.9 1006.07 443.292 986.932 443.27V440.325C1006.85 440.348 1025.95 448.267 1040.03 462.344C1054.12 476.422 1062.04 495.51 1062.06 515.419Z" fill="#FFBD69"/>
<path d="M1045.67 515.419H1042.75C1042.75 486.057 1017.71 462.164 986.932 462.164V459.249C1019.32 459.249 1045.67 484.445 1045.67 515.419Z" fill="#FFBD69"/>
<path d="M1025.93 515.419H1022.93C1022.92 505.878 1019.13 496.731 1012.38 489.985C1005.63 483.239 996.477 479.444 986.932 479.434V476.435C997.272 476.447 1007.19 480.558 1014.5 487.866C1021.81 495.174 1025.92 505.083 1025.93 515.419Z" fill="#FFBD69"/>
<path d="M1006.38 515.419H1003.5C1003.5 511.027 1001.75 506.818 998.643 503.713C995.537 500.608 991.325 498.861 986.932 498.856V495.976C992.089 495.982 997.033 498.032 1000.68 501.677C1004.33 505.322 1006.38 510.264 1006.38 515.419Z" fill="#FFBD69"/>
</g>
<g clip-path="url(#clip24_58_1456)">
<path d="M1260.14 378.882V375.937C1279.28 375.915 1297.62 368.307 1311.16 354.781C1324.69 341.255 1332.3 322.917 1332.32 303.788H1335.27C1335.25 323.697 1327.32 342.785 1313.24 356.863C1299.15 370.94 1280.06 378.859 1260.14 378.882Z" fill="#F25400"/>
<path d="M1260.14 362.499V359.583C1289.51 359.583 1313.42 334.552 1313.42 303.788H1316.34C1316.34 336.162 1291.13 362.499 1260.14 362.499Z" fill="#F25400"/>
<path d="M1260.14 342.772V339.773C1269.68 339.763 1278.83 335.968 1285.58 329.222C1292.33 322.476 1296.13 313.329 1296.14 303.788H1299.14C1299.13 314.124 1295.02 324.032 1287.7 331.341C1280.39 338.649 1270.48 342.76 1260.14 342.772Z" fill="#F25400"/>
<path d="M1260.14 323.231V320.351C1264.53 320.346 1268.74 318.599 1271.85 315.494C1274.96 312.389 1276.7 308.179 1276.71 303.788H1279.59C1279.58 308.943 1277.53 313.885 1273.89 317.53C1270.24 321.174 1265.3 323.225 1260.14 323.231Z" fill="#F25400"/>
</g>
<g clip-path="url(#clip25_58_1456)">
<path d="M1335.27 515.419H1332.32C1332.3 496.29 1324.69 477.952 1311.16 464.426C1297.62 450.9 1279.28 443.292 1260.14 443.27V440.325C1280.06 440.348 1299.15 448.267 1313.24 462.344C1327.32 476.422 1335.25 495.51 1335.27 515.419Z" fill="#FFBD69"/>
<path d="M1318.88 515.419H1315.96C1315.96 486.057 1290.92 462.164 1260.14 462.164V459.249C1292.53 459.249 1318.88 484.445 1318.88 515.419Z" fill="#FFBD69"/>
<path d="M1299.14 515.419H1296.14C1296.13 505.878 1292.33 496.731 1285.58 489.985C1278.84 483.239 1269.68 479.444 1260.14 479.434V476.435C1270.48 476.447 1280.39 480.558 1287.7 487.866C1295.02 495.174 1299.13 505.083 1299.14 515.419Z" fill="#FFBD69"/>
<path d="M1279.59 515.419H1276.71C1276.7 511.027 1274.96 506.818 1271.85 503.713C1268.74 500.608 1264.53 498.861 1260.14 498.856V495.976C1265.3 495.982 1270.24 498.032 1273.89 501.677C1277.53 505.322 1279.58 510.264 1279.59 515.419Z" fill="#FFBD69"/>
</g>
<g clip-path="url(#clip26_58_1456)">
<path d="M30.7294 576.851H33.676C33.6974 595.979 41.3094 614.318 54.8417 627.843C68.3741 641.369 86.7217 648.977 105.859 648.999V651.944C85.9406 651.921 66.844 644.003 52.7593 629.925C38.6745 615.847 30.7518 596.76 30.7294 576.851Z" fill="#D4ADFC"/>
<path d="M47.1197 576.851H50.0378C50.0378 606.212 75.0809 630.105 105.859 630.105V633.02C73.4701 633.02 47.1197 607.824 47.1197 576.851Z" fill="#D4ADFC"/>
<path d="M66.8571 576.851H69.8571C69.8676 586.391 73.6641 595.538 80.4135 602.284C87.163 609.03 96.3142 612.825 105.859 612.835V615.834C95.5189 615.822 85.6054 611.711 78.2936 604.403C70.9818 597.095 66.8689 587.186 66.8571 576.851Z" fill="#D4ADFC"/>
<path d="M86.4075 576.851H89.2887C89.2937 581.242 91.0411 585.452 94.1476 588.557C97.2542 591.662 101.466 593.408 105.859 593.413V596.293C100.702 596.287 95.758 594.237 92.1114 590.592C88.4647 586.947 86.4134 582.005 86.4075 576.851Z" fill="#D4ADFC"/>
</g>
<g clip-path="url(#clip27_58_1456)">
<path d="M242.463 576.851V579.796C223.325 579.817 204.978 587.425 191.445 600.951C177.913 614.477 170.301 632.816 170.28 651.944H167.333C167.355 632.035 175.278 612.948 189.363 598.87C203.448 584.792 222.544 576.873 242.463 576.851Z" fill="#FFBD69"/>
<path d="M242.463 593.233V596.15C213.087 596.15 189.182 621.18 189.182 651.944H186.266C186.266 619.57 211.474 593.233 242.463 593.233Z" fill="#FFBD69"/>
<path d="M242.463 612.961V615.959C232.918 615.97 223.767 619.764 217.017 626.51C210.268 633.257 206.471 642.403 206.461 651.944H203.461C203.473 641.609 207.586 631.7 214.897 624.392C222.209 617.083 232.123 612.972 242.463 612.961Z" fill="#FFBD69"/>
<path d="M242.463 632.501V635.381C238.07 635.386 233.858 637.133 230.751 640.238C227.645 643.343 225.897 647.553 225.892 651.944H223.011C223.017 646.789 225.069 641.847 228.715 638.203C232.362 634.558 237.306 632.507 242.463 632.501Z" fill="#FFBD69"/>
</g>
<g clip-path="url(#clip28_58_1456)">
<path d="M379.067 576.851V579.796C359.929 579.817 341.581 587.425 328.049 600.951C314.517 614.477 306.905 632.816 306.883 651.944H303.937C303.959 632.035 311.882 612.948 325.966 598.87C340.051 584.792 359.148 576.873 379.067 576.851Z" fill="#D4ADFC"/>
<path d="M379.066 593.233V596.15C349.691 596.15 325.786 621.18 325.786 651.944H322.869C322.869 619.57 348.078 593.233 379.066 593.233Z" fill="#D4ADFC"/>
<path d="M379.067 612.961V615.959C369.522 615.97 360.37 619.764 353.621 626.51C346.871 633.257 343.075 642.403 343.064 651.944H340.064C340.076 641.609 344.189 631.7 351.501 624.392C358.813 617.083 368.726 612.972 379.067 612.961Z" fill="#D4ADFC"/>
<path d="M379.067 632.501V635.381C374.673 635.386 370.461 637.133 367.355 640.238C364.248 643.343 362.501 647.553 362.496 651.944H359.615C359.621 646.789 361.672 641.847 365.319 638.203C368.965 634.558 373.91 632.507 379.067 632.501Z" fill="#D4ADFC"/>
</g>
<g clip-path="url(#clip29_58_1456)">
<path d="M303.937 713.388H306.883C306.905 732.516 314.517 750.855 328.049 764.38C341.582 777.906 359.929 785.514 379.067 785.536V788.481C359.148 788.458 340.052 780.54 325.967 766.462C311.882 752.384 303.959 733.297 303.937 713.388Z" fill="#F25400"/>
<path d="M320.327 713.387H323.245C323.245 742.749 348.288 766.642 379.067 766.642V769.557C346.678 769.557 320.327 744.361 320.327 713.387Z" fill="#F25400"/>
<path d="M340.065 713.387H343.065C343.075 722.928 346.872 732.075 353.621 738.821C360.371 745.567 369.522 749.362 379.067 749.372V752.371C368.726 752.359 358.813 748.248 351.501 740.94C344.189 733.632 340.076 723.723 340.065 713.387Z" fill="#F25400"/>
<path d="M359.615 713.388H362.496C362.501 717.779 364.249 721.989 367.355 725.094C370.462 728.199 374.674 729.945 379.067 729.95V732.83C373.91 732.824 368.966 730.774 365.319 727.129C361.672 723.484 359.621 718.542 359.615 713.388Z" fill="#F25400"/>
</g>
<g clip-path="url(#clip30_58_1456)">
<path d="M577.132 576.851H580.079C580.1 595.979 587.712 614.318 601.245 627.843C614.777 641.369 633.125 648.977 652.262 648.999V651.944C632.343 651.921 613.247 644.003 599.162 629.925C585.077 615.847 577.155 596.76 577.132 576.851Z" fill="#F25400"/>
<path d="M593.523 576.851H596.441C596.441 606.212 621.484 630.105 652.262 630.105V633.02C619.873 633.02 593.523 607.824 593.523 576.851Z" fill="#F25400"/>
<path d="M613.26 576.851H616.26C616.27 586.391 620.067 595.538 626.816 602.284C633.566 609.03 642.717 612.825 652.262 612.835V615.834C641.922 615.822 632.008 611.711 624.696 604.403C617.385 597.095 613.272 587.186 613.26 576.851Z" fill="#F25400"/>
<path d="M632.81 576.851H635.692C635.697 581.242 637.444 585.452 640.55 588.557C643.657 591.662 647.869 593.408 652.262 593.413V596.293C647.105 596.287 642.161 594.237 638.514 590.592C634.868 586.947 632.816 582.005 632.81 576.851Z" fill="#F25400"/>
</g>
<g clip-path="url(#clip31_58_1456)">
<path d="M788.866 576.851V579.796C769.729 579.817 751.381 587.425 737.849 600.951C724.316 614.477 716.704 632.816 716.683 651.944H713.736C713.759 632.035 721.681 612.948 735.766 598.87C749.851 584.792 768.948 576.873 788.866 576.851Z" fill="#FFBD69"/>
<path d="M788.866 593.233V596.15C759.49 596.15 735.585 621.18 735.585 651.944H732.669C732.669 619.57 757.877 593.233 788.866 593.233Z" fill="#FFBD69"/>
<path d="M788.866 612.961V615.959C779.321 615.97 770.17 619.764 763.421 626.51C756.671 633.257 752.875 642.403 752.864 651.944H749.864C749.876 641.609 753.989 631.7 761.301 624.392C768.613 617.083 778.526 612.972 788.866 612.961Z" fill="#FFBD69"/>
<path d="M788.866 632.501V635.381C784.473 635.386 780.261 637.133 777.154 640.238C774.048 643.343 772.3 647.553 772.295 651.944H769.414C769.42 646.789 771.471 641.847 775.118 638.203C778.765 634.558 783.709 632.507 788.866 632.501Z" fill="#FFBD69"/>
</g>
<g clip-path="url(#clip32_58_1456)">
<path d="M652.262 788.481H649.316C649.294 769.353 641.682 751.014 628.15 737.488C614.618 723.962 596.27 716.354 577.132 716.333V713.388C597.051 713.41 616.148 721.329 630.232 735.407C644.317 749.485 652.24 768.572 652.262 788.481Z" fill="#F25400"/>
<path d="M635.872 788.481H632.954C632.954 759.119 607.911 735.226 577.132 735.226V732.311C609.522 732.311 635.872 757.507 635.872 788.481Z" fill="#F25400"/>
<path d="M616.135 788.481H613.135C613.124 778.94 609.328 769.794 602.578 763.047C595.829 756.301 586.677 752.507 577.132 752.496V749.498C587.473 749.509 597.386 753.62 604.698 760.929C612.01 768.237 616.123 778.145 616.135 788.481Z" fill="#F25400"/>
</g>
<g clip-path="url(#clip33_58_1456)">
<path d="M713.736 713.388H716.683C716.704 732.516 724.316 750.855 737.849 764.38C751.381 777.906 769.729 785.514 788.866 785.536V788.481C768.947 788.458 749.851 780.54 735.766 766.462C721.681 752.384 713.759 733.297 713.736 713.388Z" fill="#CEE41A"/>
<path d="M730.127 713.387H733.045C733.045 742.749 758.088 766.642 788.866 766.642V769.557C756.477 769.557 730.127 744.361 730.127 713.387Z" fill="#CEE41A"/>
<path d="M749.864 713.387H752.864C752.874 722.928 756.671 732.075 763.42 738.821C770.17 745.567 779.321 749.362 788.866 749.372V752.371C778.526 752.359 768.612 748.248 761.3 740.94C753.989 733.632 749.876 723.723 749.864 713.387Z" fill="#CEE41A"/>
<path d="M769.414 713.388H772.296C772.301 717.779 774.048 721.989 777.154 725.094C780.261 728.199 784.473 729.945 788.866 729.95V732.83C783.709 732.824 778.765 730.774 775.118 727.129C771.472 723.484 769.42 718.542 769.414 713.388Z" fill="#CEE41A"/>
</g>
<g clip-path="url(#clip34_58_1456)">
<path d="M1062.06 651.944H1059.12C1059.09 632.816 1051.48 614.477 1037.95 600.951C1024.42 587.425 1006.07 579.817 986.932 579.796V576.851C1006.85 576.873 1025.95 584.792 1040.03 598.87C1054.12 612.948 1062.04 632.035 1062.06 651.944Z" fill="#CEE41A"/>
<path d="M1045.67 651.944H1042.75C1042.75 622.582 1017.71 598.689 986.932 598.689V595.774C1019.32 595.774 1045.67 620.97 1045.67 651.944Z" fill="#CEE41A"/>
<path d="M1025.93 651.944H1022.93C1022.92 642.403 1019.13 633.257 1012.38 626.511C1005.63 619.764 996.477 615.97 986.932 615.959V612.961C997.272 612.972 1007.19 617.083 1014.5 624.392C1021.81 631.7 1025.92 641.609 1025.93 651.944Z" fill="#CEE41A"/>
<path d="M1006.38 651.944H1003.5C1003.5 647.553 1001.75 643.343 998.643 640.238C995.537 637.133 991.325 635.386 986.932 635.381V632.502C992.089 632.507 997.033 634.558 1000.68 638.203C1004.33 641.848 1006.38 646.789 1006.38 651.944Z" fill="#CEE41A"/>
</g>
<g clip-path="url(#clip35_58_1456)">
<path d="M850.34 788.481V785.536C869.477 785.514 887.825 777.906 901.357 764.38C914.89 750.855 922.502 732.516 922.523 713.388H925.47C925.447 733.297 917.525 752.384 903.44 766.462C889.355 780.54 870.259 788.458 850.34 788.481Z" fill="#F25400"/>
<path d="M850.34 772.099V769.182C879.716 769.182 903.621 744.151 903.621 713.388H906.537C906.537 745.761 881.329 772.099 850.34 772.099Z" fill="#F25400"/>
<path d="M850.34 752.371V749.372C859.885 749.362 869.036 745.567 875.785 738.821C882.535 732.075 886.331 722.928 886.342 713.388H889.342C889.33 723.723 885.217 733.632 877.905 740.94C870.594 748.248 860.68 752.359 850.34 752.371Z" fill="#F25400"/>
<path d="M850.34 732.83V729.95C854.733 729.945 858.945 728.199 862.052 725.094C865.158 721.989 866.906 717.779 866.911 713.388H869.792C869.786 718.542 867.735 723.484 864.088 727.129C860.441 730.774 855.497 732.824 850.34 732.83Z" fill="#F25400"/>
</g>
<g clip-path="url(#clip36_58_1456)">
<path d="M986.932 713.388H989.878C989.9 732.516 997.512 750.855 1011.04 764.38C1024.58 777.906 1042.92 785.514 1062.06 785.536V788.481C1042.14 788.458 1023.05 780.54 1008.96 766.462C994.877 752.384 986.954 733.297 986.932 713.388Z" fill="#CEE41A"/>
<path d="M1003.32 713.387H1006.24C1006.24 742.749 1031.28 766.642 1062.06 766.642V769.557C1029.67 769.557 1003.32 744.361 1003.32 713.387Z" fill="#CEE41A"/>
<path d="M1023.06 713.387H1026.06C1026.07 722.928 1029.87 732.075 1036.62 738.821C1043.37 745.567 1052.52 749.362 1062.06 749.372V752.371C1051.72 752.359 1041.81 748.248 1034.5 740.94C1027.18 733.632 1023.07 723.723 1023.06 713.387Z" fill="#CEE41A"/>
<path d="M1042.61 713.388H1045.49C1045.5 717.779 1047.24 721.989 1050.35 725.094C1053.46 728.199 1057.67 729.945 1062.06 729.95V732.83C1056.9 732.824 1051.96 730.774 1048.31 727.129C1044.67 723.484 1042.62 718.542 1042.61 713.388Z" fill="#CEE41A"/>
</g>
<g clip-path="url(#clip37_58_1456)">
<path d="M1198.67 651.944H1195.72C1195.7 632.816 1188.09 614.477 1174.55 600.951C1161.02 587.425 1142.67 579.817 1123.54 579.796V576.851C1143.45 576.873 1162.55 584.792 1176.64 598.87C1190.72 612.948 1198.64 632.035 1198.67 651.944Z" fill="#F25400"/>
<path d="M1182.27 651.944H1179.36C1179.36 622.582 1154.31 598.689 1123.54 598.689V595.774C1155.92 595.774 1182.27 620.97 1182.27 651.944Z" fill="#F25400"/>
<path d="M1162.54 651.944H1159.54C1159.53 642.403 1155.73 633.257 1148.98 626.511C1142.23 619.764 1133.08 615.97 1123.54 615.959V612.961C1133.88 612.972 1143.79 617.083 1151.1 624.392C1158.41 631.7 1162.53 641.609 1162.54 651.944Z" fill="#F25400"/>
<path d="M1142.99 651.944H1140.11C1140.1 647.553 1138.35 643.343 1135.25 640.238C1132.14 637.133 1127.93 635.386 1123.54 635.381V632.502C1128.69 632.507 1133.64 634.558 1137.28 638.203C1140.93 641.848 1142.98 646.789 1142.99 651.944Z" fill="#F25400"/>
</g>
<g clip-path="url(#clip38_58_1456)">
<path d="M1123.54 713.388H1126.48C1126.5 732.516 1134.12 750.855 1147.65 764.38C1161.18 777.906 1179.53 785.514 1198.67 785.536V788.481C1178.75 788.458 1159.65 780.54 1145.56 766.462C1131.48 752.384 1123.56 733.297 1123.54 713.388Z" fill="#CEE41A"/>
<path d="M1139.93 713.387H1142.84C1142.84 742.749 1167.89 766.642 1198.67 766.642V769.557C1166.28 769.557 1139.93 744.361 1139.93 713.387Z" fill="#CEE41A"/>
<path d="M1159.66 713.387H1162.66C1162.67 722.928 1166.47 732.075 1173.22 738.821C1179.97 745.567 1189.12 749.362 1198.67 749.372V752.371C1188.32 752.359 1178.41 748.248 1171.1 740.94C1163.79 733.632 1159.67 723.723 1159.66 713.387Z" fill="#CEE41A"/>
<path d="M1179.21 713.388H1182.09C1182.1 717.779 1183.85 721.989 1186.95 725.094C1190.06 728.199 1194.27 729.945 1198.67 729.95V732.83C1193.51 732.824 1188.56 730.774 1184.92 727.129C1181.27 723.484 1179.22 718.542 1179.21 713.388Z" fill="#CEE41A"/>
</g>
<g clip-path="url(#clip39_58_1456)">
<path d="M1335.27 788.481H1332.32C1332.3 769.353 1324.69 751.014 1311.16 737.488C1297.62 723.962 1279.28 716.354 1260.14 716.333V713.388C1280.06 713.41 1299.15 721.329 1313.24 735.407C1327.32 749.485 1335.25 768.572 1335.27 788.481Z" fill="#CEE41A"/>
<path d="M1318.88 788.481H1315.96C1315.96 759.119 1290.92 735.226 1260.14 735.226V732.311C1292.53 732.311 1318.88 757.507 1318.88 788.481Z" fill="#CEE41A"/>
<path d="M1299.14 788.481H1296.14C1296.13 778.94 1292.33 769.794 1285.58 763.047C1278.84 756.301 1269.68 752.507 1260.14 752.496V749.498C1270.48 749.509 1280.39 753.62 1287.7 760.929C1295.02 768.237 1299.13 778.145 1299.14 788.481Z" fill="#CEE41A"/>
</g>
</g>
<defs>
<clipPath id="clip0_58_1456">
<rect width="1366" height="768" fill="white"/>
</clipPath>
<clipPath id="clip1_58_1456">
<rect width="75.0933" height="75.13" fill="white" transform="matrix(0 1 -1 0 105.859 30.7144)"/>
</clipPath>
<clipPath id="clip2_58_1456">
<rect width="75.0933" height="75.13" fill="white" transform="matrix(0 -1 1 0 167.333 105.808)"/>
</clipPath>
<clipPath id="clip3_58_1456">
<rect width="75.13" height="75.0933" fill="white" transform="matrix(-1 0 0 -1 242.463 242.345)"/>
</clipPath>
<clipPath id="clip4_58_1456">
<rect width="75.0933" height="75.13" fill="white" transform="matrix(0 -1 1 0 440.541 105.808)"/>
</clipPath>
<clipPath id="clip5_58_1456">
<rect width="75.13" height="75.0933" fill="white" transform="translate(303.937 167.251)"/>
</clipPath>
<clipPath id="clip6_58_1456">
<rect width="75.13" height="75.0933" fill="white" transform="translate(440.541 167.251)"/>
</clipPath>
<clipPath id="clip7_58_1456">
<rect width="75.0933" height="75.13" fill="white" transform="matrix(0 1 -1 0 788.866 167.251)"/>
</clipPath>
<clipPath id="clip8_58_1456">
<rect width="75.0933" height="75.13" fill="white" transform="matrix(0 -1 1 0 986.932 105.808)"/>
</clipPath>
<clipPath id="clip9_58_1456">
<rect width="75.0933" height="75.13" fill="white" transform="matrix(0 1 -1 0 1062.06 167.251)"/>
</clipPath>
<clipPath id="clip10_58_1456">
<rect width="75.0933" height="75.13" fill="white" transform="matrix(0 -1 1 0 1123.54 105.808)"/>
</clipPath>
<clipPath id="clip11_58_1456">
<rect width="75.0933" height="75.13" fill="white" transform="matrix(0 1 -1 0 1335.27 30.7144)"/>
</clipPath>
<clipPath id="clip12_58_1456">
<rect width="75.13" height="75.0933" fill="white" transform="translate(1123.54 167.251)"/>
</clipPath>
<clipPath id="clip13_58_1456">
<rect width="75.13" height="75.0933" fill="white" transform="matrix(-1 0 0 -1 1335.27 242.345)"/>
</clipPath>
<clipPath id="clip14_58_1456">
<rect width="75.13" height="75.0933" fill="white" transform="matrix(-1 0 0 -1 105.859 378.882)"/>
</clipPath>
<clipPath id="clip15_58_1456">
<rect width="75.0933" height="75.13" fill="white" transform="matrix(0 1 -1 0 242.463 303.788)"/>
</clipPath>
<clipPath id="clip16_58_1456">
<rect width="75.13" height="75.0933" fill="white" transform="translate(30.7295 440.325)"/>
</clipPath>
<clipPath id="clip17_58_1456">
<rect width="75.13" height="75.0933" fill="white" transform="matrix(-1 0 0 -1 242.463 515.419)"/>
</clipPath>
<clipPath id="clip18_58_1456">
<rect width="75.13" height="75.0933" fill="white" transform="translate(440.541 440.325)"/>
</clipPath>
<clipPath id="clip19_58_1456">
<rect width="75.0933" height="75.13" fill="white" transform="matrix(0 -1 1 0 577.132 515.419)"/>
</clipPath>
<clipPath id="clip20_58_1456">
<rect width="75.0933" height="75.13" fill="white" transform="matrix(0 -1 1 0 850.34 378.882)"/>
</clipPath>
<clipPath id="clip21_58_1456">
<rect width="75.13" height="75.0933" fill="white" transform="matrix(-1 0 0 -1 1062.06 378.882)"/>
</clipPath>
<clipPath id="clip22_58_1456">
<rect width="75.13" height="75.0933" fill="white" transform="matrix(-1 0 0 -1 925.47 515.419)"/>
</clipPath>
<clipPath id="clip23_58_1456">
<rect width="75.13" height="75.0933" fill="white" transform="translate(986.932 440.325)"/>
</clipPath>
<clipPath id="clip24_58_1456">
<rect width="75.0933" height="75.13" fill="white" transform="matrix(0 1 -1 0 1335.27 303.788)"/>
</clipPath>
<clipPath id="clip25_58_1456">
<rect width="75.13" height="75.0933" fill="white" transform="translate(1260.14 440.325)"/>
</clipPath>
<clipPath id="clip26_58_1456">
<rect width="75.13" height="75.0933" fill="white" transform="matrix(-1 0 0 -1 105.859 651.944)"/>
</clipPath>
<clipPath id="clip27_58_1456">
<rect width="75.0933" height="75.13" fill="white" transform="matrix(0 -1 1 0 167.333 651.944)"/>
</clipPath>
<clipPath id="clip28_58_1456">
<rect width="75.0933" height="75.13" fill="white" transform="matrix(0 -1 1 0 303.937 651.944)"/>
</clipPath>
<clipPath id="clip29_58_1456">
<rect width="75.13" height="75.0933" fill="white" transform="matrix(-1 0 0 -1 379.067 788.481)"/>
</clipPath>
<clipPath id="clip30_58_1456">
<rect width="75.13" height="75.0933" fill="white" transform="matrix(-1 0 0 -1 652.262 651.944)"/>
</clipPath>
<clipPath id="clip31_58_1456">
<rect width="75.0933" height="75.13" fill="white" transform="matrix(0 -1 1 0 713.736 651.944)"/>
</clipPath>
<clipPath id="clip32_58_1456">
<rect width="75.13" height="75.0933" fill="white" transform="translate(577.132 713.388)"/>
</clipPath>
<clipPath id="clip33_58_1456">
<rect width="75.13" height="75.0933" fill="white" transform="matrix(-1 0 0 -1 788.866 788.481)"/>
</clipPath>
<clipPath id="clip34_58_1456">
<rect width="75.13" height="75.0933" fill="white" transform="translate(986.932 576.851)"/>
</clipPath>
<clipPath id="clip35_58_1456">
<rect width="75.0933" height="75.13" fill="white" transform="matrix(0 1 -1 0 925.47 713.388)"/>
</clipPath>
<clipPath id="clip36_58_1456">
<rect width="75.13" height="75.0933" fill="white" transform="matrix(-1 0 0 -1 1062.06 788.481)"/>
</clipPath>
<clipPath id="clip37_58_1456">
<rect width="75.13" height="75.0933" fill="white" transform="translate(1123.54 576.851)"/>
</clipPath>
<clipPath id="clip38_58_1456">
<rect width="75.13" height="75.0933" fill="white" transform="matrix(-1 0 0 -1 1198.67 788.481)"/>
</clipPath>
<clipPath id="clip39_58_1456">
<rect width="75.13" height="75.0933" fill="white" transform="translate(1260.14 713.388)"/>
</clipPath>
</defs>
</svg>
